<?xml version="1.0" encoding="UTF-8"?>
<svg id="uuid-8a7fa0d6-2229-4fa5-9741-666568933766" data-name="Ñëîé 1" xmlns="http://www.w3.org/2000/svg" viewBox="0 0 2341.8 3018.55">
  <path d="M1605.32,1300.41c-1.01,0-2.02-.32-2.86-.93-1.39-1.02-2.14-2.7-1.97-4.41.14-1.41,1.53-9.02,14.84-20.86,11.91-10.59,62.61-50.1,89.93-56.74,2.17-.53,4.29-.8,6.3-.8,7.82,0,14.05,4.14,16.24,10.81,2.64,8.03-1.16,17.28-9.68,23.58-2.89,2.13-8.82,4.57-19.07,8.68-6.68,2.69-14.25,5.73-21.62,9.09-30.63,13.95-69.77,31.01-70.16,31.18-.62.27-1.28.4-1.94.4ZM1711.56,1226.39c-1.24,0-2.59.18-4.01.52-23.25,5.65-71.4,41.79-85.77,54.56-1.17,1.04-2.21,2.02-3.16,2.96,14.26-6.27,36.11-15.94,54.78-24.44,7.57-3.45,15.25-6.53,22.03-9.26,7.32-2.94,14.89-5.99,16.92-7.49,5.79-4.27,7.3-9.47,6.23-12.73-.88-2.66-3.37-4.13-7.02-4.13Z" style="fill: #d9bf77; stroke: #d9bf77; stroke-miterlimit: 10; stroke-width: 10px;"/>
  <path d="M1471,621.03c-13.15-51.13-151.66-60.95-258.46-13.63-74.67,33.08-96.42,41.94-179.78,135.03,0,0,83.53-82.83,235.15-95.39,100.06-8.29,146.03,44.16,184.78,22.56,11.34-6.32,24.6-24.12,18.31-48.57Z" style="fill: #d9bf77; stroke: #d9bf77; stroke-miterlimit: 10; stroke-width: 10px;"/>
  <path d="M1466.93,781.5c-6.85,6.1-13.14,12.9-20.58,18.36-6.63,4.87-13.65,9.42-20.81,13.6-.78.16-1.56.37-2.36.66-10.66,3.88-22.07,7.69-33.5,8.16-14.46.59-24.82-4.18-38.7,2.6-10.25,5-19.31,13.58-28.65,19.17-11.98,7.17-23.32,13.87-36.3,19.21-18.48,7.6-37.67,13.19-56.85,18.69-7.99,2.3-56.84,6.3-55.48,20.16.67,6.85,22.27,10.4,27.05,11.63,32.72,8.38,66.33,14.13,99.93,17.48,25.61,2.55,63.74,4.6,79.56-20.61,7.46-11.88,8.86-27.95,6.18-41.59,17.06-1.69,33.76-8.43,47.2-18.79,19.63-15.13,39.76-39.7,40.63-65.7.13-3.95-4.67-5.4-7.33-3.04Z" style="fill: #d9bf77; stroke: #d9bf77; stroke-miterlimit: 10; stroke-width: 10px;"/>
  <path d="M1766.3,1148.14c-20.21-28.01-57.41-64.28-96.78-102.68-29.3-28.57-59.6-58.11-81.78-83.52l-1.76-2.01c-68.76-78.74-83.07-95.13-89.33-186.34-1.69-24.58-1.92-48.51-2.15-71.64-.49-50.52-.96-98.24-15.56-150.15-38.67-137.47-77.58-230.18-130.12-309.99-63.37-96.27-145.98-171.31-259.97-236.18-2.33-1.33-5.3-.51-6.62,1.82-1.33,2.33-.51,5.29,1.82,6.62,232.56,132.33,317.47,298.34,385.55,540.36,14.25,50.66,14.71,97.76,15.2,147.61.23,23.28.46,47.35,2.17,72.22,6.49,94.47,22.85,113.21,91.71,192.07l1.75,2.01c22.44,25.7,52.88,55.38,82.31,84.08,37.35,36.42,75.97,74.08,95.69,101.4,19.23,26.66,23.29,51.02,12.05,72.42-20.86,39.72-89.97,60.43-146.48,60.43-1.62,0-3.23-.02-4.83-.05-.16,0-.32,0-.48,0-12.42,0-21.64,10.21-31.4,21.02-15.16,16.78-30.83,34.14-61.35,21.54-56.74-23.42-43.99-84.63-31.34-119.03,1.4-3.81,2.79-7.55,4.16-11.23,13.64-36.74,25.42-68.47,27.18-110.68,2.25-54.12-8.07-109.17-32.48-173.25-6.8-17.86-16.68-37.48-27.14-58.25-21.4-42.5-43.53-86.45-43.53-122.66s17.36-46.23,32.67-56.25c15.43-10.1,31.38-20.54,19.59-51.84-12.4-32.93-45.55-50.05-98.51-50.88-42.76-.66-88.36,9.08-118.53,15.54l-4.51.96c-104.75,22.3-154.63,70.63-224.33,147.57-15.69,17.32-44.88,49.55-39.35,81.61,6.35,36.74,43.2,74.72,79.84,100.74-33.57,50.8-57.47,114.75-62.78,195.17-4.23,63.94.33,124.48,13.55,179.93.77,3.23,1.59,6.42,2.41,9.6-17.38,13.72-34.28,29.01-50.19,45.58-59.86,62.35-96.45,132.67-100.38,192.93-3.11,47.62,4.46,93.28,22.49,135.71,16.47,38.74,41.7,74.94,74.99,107.59,58.3,57.19,141.91,103.28,235.42,129.77,53.34,15.11,124.9,30.34,196.68,30.34,26.06,0,52.15-2.01,77.4-6.76,39.49-7.43,67.42-28.43,83.02-62.42,28.06-61.17,8.76-153.64-23.64-209.6-1.18-2.03-2.49-4.26-3.91-6.65-13.21-22.35-37.79-63.95-29.27-89.27.5-1.49,1.12-2.91,1.83-4.25,11.45,14.15,32.5,28.84,46.07,37.52,3.72,2.38,7.48,4.8,11.26,7.23,22.54,14.51,45.54,29.3,65.4,39.14-4.02,6.79-10.63,18.09-12.11,21.51-7.74,17.95-6.05,32.85-2.36,65.51,1.82,16.1,4.09,36.14,6.08,63.33,5.91,80.65-19.58,139.81-71.79,166.57-3.12,1.6-6.17,3.19-9.19,4.77-48.12,25.16-89.68,46.88-275.31,5.58-23.88-5.31-45.47-10.44-64.78-15.17-.25-.11-.5-.21-.77-.28-20.55-5.18-39.09-10.9-55.45-15.94-30.64-9.45-62.19-19.85-94.67-18.38-31.18,1.41-61.13,14.15-86.51,31.79-11.86,8.24-22.91,17.61-33.25,27.68-24.28,23.65-44.71,51.12-62.35,79.99-35,57.27-61.95,126.59-75.91,195.17-23.45,115.25-7.97,213.17,42.46,268.67,65.47,72.04,136.9,119.37,205.97,165.15,109.7,72.7,213.32,141.37,265.87,298.27.68,2.03,2.57,3.31,4.6,3.31.51,0,1.03-.08,1.54-.25,2.54-.85,3.91-3.6,3.06-6.14-53.61-160.07-158.58-229.64-269.71-303.28-68.57-45.45-139.48-92.44-204.14-163.58-48.33-53.18-62.96-148.02-40.13-260.2,13.74-67.5,40.26-135.71,74.68-192.04,12.22-19.99,25.78-39.22,41.06-57,7-8.14,14.37-15.98,22.15-23.39,19.24-18.32,42.7-34.73,67.92-43.85,21.39-7.73,43.76-8.06,66.08-4.98,29.43,4.07,58.33,12.05,87.09,19.26,27.6,6.91,61.94,15.52,103.08,24.67,76.08,16.93,128.51,23.41,167.25,23.41,57.55,0,84.9-14.3,114.66-29.86,3-1.57,6.03-3.15,9.12-4.74,55.9-28.66,83.26-91.14,77.04-175.92-2.01-27.39-4.29-47.53-6.12-63.71-3.6-31.82-5.09-45,1.63-60.57,1.14-2.65,7.13-12.96,12.04-21.23,10.13,4.41,19.2,7.17,26.64,7.42.36.01.72.02,1.07.02,9.21,0,17.03-4.17,22.65-12.1,12.21-17.23,11.62-48.49,5.82-63.31-12.93-33.08-53.07-41.04-84.47-41.9-1.93-.05-3.99-.13-6.16-.22-14.37-.56-32.26-1.25-45.42,4.04-5.56,2.24-7.27,5.83-7.73,8.45-1.27,7.31,5.63,14.59,12.55,20.75,11.21,9.98,25.05,16.12,38.43,22.06,14.34,6.36,27.88,12.37,38.08,22.62,5.56,5.59,3.32,10.68-4.73,19.96-19.85-9.71-43.7-25.06-65.72-39.22-3.78-2.44-7.55-4.86-11.28-7.24-17.32-11.08-36.43-25.56-45.08-37.08,2.84-2.46,106.23-45.42,135.97-61.21,35.29-18.74,38.09-53.63,35.85-88.53-1.32-20.58-6.4-32.34-15.54-35.95-10.42-4.12-20.86,4.98-22.05,6.07-24.01,21.86-48.21,43.37-71.33,66.21-17.13,16.92-37.08,33.5-51.84,52.31-12.35,15.75-31.18,34.17-24.63,56.16.37,1.25.89,2.52,1.51,3.81-2.22,3.03-3.96,6.37-5.2,10.04-9.94,29.53,15.13,71.95,30.11,97.3,1.4,2.37,2.7,4.57,3.86,6.58,31.18,53.85,49.92,142.48,23.22,200.68-14.2,30.96-39.77,50.12-75.98,56.93-92.95,17.48-197.94-3.07-269.65-23.38-165.92-47.01-338.66-167.08-325.85-363.1,3.79-58.02,39.4-126.12,97.7-186.84,14.62-15.23,30.08-29.34,45.96-42.11,15.58,55,39.86,102.86,72.37,142.47,33.32,40.6,80.36,63.98,126.59,63.98,6.81,0,13.61-.51,20.33-1.54,48.39-7.44,86.69-40.57,107.86-93.27,21.75-54.14,13.16-108.2-23.55-148.33-61.21-66.91-156.79-57.54-231.38-21.23-23.48,11.43-45.67,25.5-66.52,41.2-13.93-55.32-19.08-116.92-14.75-182.36,5.18-78.36,28.46-140.7,61.18-190.26,18.2,12.08,35.77,20.93,48.9,24.91,7.1,2.15,14.29,4.38,21.57,6.63,53.96,16.69,113.91,35.24,172.03,35.23,11.57,0,23.08-.74,34.45-2.37,41.38-5.95,65.39-17.85,73.78-63.63,7.39-40.35,11-91.99-27-133.57-32.65-35.73-95.09-45.99-145.24-23.88-61.62,27.17-131.03,71.52-181.13,143.12-35.02-24.97-69.97-61.11-75.72-94.38-4.73-27.39,22.4-57.35,36.98-73.44,68.39-75.5,117.26-122.9,219.15-144.6l4.52-.97c29.74-6.36,74.64-15.98,116.34-15.32,48.58.76,78.72,15.77,89.58,44.6,9.05,24.02-.31,30.14-15.82,40.29-16.51,10.81-37.07,24.26-37.07,64.38s22.66,83.51,44.57,127.02c10.34,20.54,20.11,39.95,26.74,57.34,23.93,62.81,34.05,116.64,31.85,169.39-1.69,40.68-13.23,71.74-26.58,107.71-1.37,3.69-2.76,7.44-4.17,11.26-6.62,17.99-13.83,44.79-10.64,70.29,3.64,29.05,19.59,49.6,47.39,61.07,8.55,3.53,16.21,5.02,23.14,5.02,22.91,0,37.65-16.32,49.13-29.03,8.72-9.65,16.2-17.95,24.47-17.81,1.74.04,3.49.06,5.25.06,60.69,0,132.02-22.1,154.87-65.63,9-17.14,14.09-45.39-12.77-82.62ZM1606.15,1593.54c-13.29-5.9-25.84-11.47-35.91-20.44-10.1-8.99-9.47-11.73-9.44-11.83,0,0,.29-.51,1.78-1.11,11.24-4.52,27.97-3.87,41.42-3.34,2.2.09,4.31.17,6.27.22,28.46.78,64.69,7.61,75.69,35.73,4.77,12.19,5.32,40.01-4.7,54.16-3.97,5.6-9.04,8.23-15.46,7.99-5.71-.2-12.9-2.3-21.05-5.72,6.84-8.26,13.63-19.73,2.42-31.01-11.48-11.54-26.5-18.2-41.02-24.65ZM1536.7,1503.27c.25-.27.5-.55.74-.82,16.98-18.96,35.01-37.1,53.26-54.88,20.57-20.04,41.57-39.72,63.37-58.42.03-.03.05-.06.08-.08.03-.03.06-.04.09-.07.07-.06,6.93-6.2,11.94-4.22,2.36.93,8.01,5.49,9.42,27.54,2.35,36.58-1.98,64.08-30.71,79.34-31.78,16.88-80.35,41.19-136.38,58.25-1.74-19.24,16.39-33.7,28.19-46.63ZM1090.1,1273.31c18.34-9.82,37.78-18.57,57.94-23.93,4.48-1.19,8.86-2.32,13.18-3.36,30.03-7.25,56.91-10.43,89.13-2.12,27.29,7.04,52.61,21.52,71.68,42.37,34.09,37.27,42,87.62,21.7,138.16-19.84,49.39-55.47,80.39-100.33,87.29-49.01,7.55-101.87-15.07-137.93-59-32.31-39.37-56.35-87.86-71.5-142.89-1.54-5.59,50-33.23,56.13-36.51ZM1260.14,779.26c46.51-20.51,104.19-11.25,134.15,21.54,34.91,38.2,32.03,84.77,24.61,125.27-7.41,40.47-27.06,50.23-65.61,55.77-66.28,9.52-138.5-12.82-202.23-32.53-7.3-2.26-14.51-4.49-21.62-6.65-12.61-3.83-29.19-12.25-46.28-23.62,48.94-69.92,116.76-113.25,176.97-139.8Z" style="fill: #d9bf77; stroke: #d9bf77; stroke-miterlimit: 10; stroke-width: 10px;"/>
</svg>