<?xml version="1.0" encoding="UTF-8"?>
<svg id="uuid-c1623aa3-49c4-4220-9f37-bcf4ac99811e" data-name="1" xmlns="http://www.w3.org/2000/svg" viewBox="0 0 8503.61 2489.95">
  <path d="M2922.17,1583.41c-2.14-.33-4.28-.71-6.42-1.07l-41.04,2.41c-487.13,24.83-474.77,103.15-793.43,267.55,19.41,7.76,38.81,15.45,58.51,22.72,326.99,120.83,591.86-17.46,814.94-256.32l2.46-5.83c-13.29-7.77-25.14-17.47-35.03-29.47h0ZM5139.4,1346.91c281.32-57.84,107.07-393.74-74.83-248.36l-33.99,29.91,22.29-41.12c100.66-133.82,298.36-20.81,285.78,133.72-12.62,154.92-182.69,189.01-342.2,189.19,333.54,64.07,661.34,145.01,915.82,197.44,415.94,85.7,801.15,126.29,1199.16,96.89,174.22-12.86,360.7-37.69,530.93-85.61,310.71-87.46,564.86-320.15,507.77-685.83-76.05-487.16-796.01-477.8-866.25-52.63-24.31,147.15,50.42,314.44,216.21,323.13l44.06-.48c-226.8,58.78-337.46-188.84-286.85-377.09,118.95-442.45,868.26-429.48,960.73,95.74,65.73,373.38-174.12,652.33-514.85,756.18-49.66,15.14-100.47,28.55-152.15,40.37,39.11,7.27,73.97,18.58,104.61,27.75,176.86,52.88,303.55,233.78,236.56,408.47-36.13,94.24-120.08,142.32-193.73,147.44-147.34,10.25-298.95-128.96-197.57-275.13,49.06-70.73,144.3-92.14,208.93-32.53l27.14,34.67-36.36-21.79c-74.52-39.13-148.6-18.47-177.84,64.47-71.71,203.35,349.57,265.73,310.14-51.5-11.23-90.49-67.56-156.4-146.9-194.05-158.84-75.37-319.35-66.52-513.94-49.48-281.81,24.71-571.96,12.96-836.74-21.09-31.72-4.08-63.31-8.52-94.79-13.26,174.89,108.18,309.67,271.44,273.78,445.75-59.6,289.38-475.54,282.71-510.35,34.3-10.3-73.52,31.88-141.55,95.11-177.66l59.32-23.55-47.73,39.63c-192.02,176.48,57.97,358,221.06,262.85,158.49-92.46,137.22-272.71,33.93-393.03-155.16-180.74-325.02-218.1-582.3-276.35-397.81-90.06-784.93-203.29-1185.17-262.75-289.28-42.97-433.46-36.38-695.22-10.45,197.1,40.12,299.4,207.17,399.89,414.94,53.08,109.74,27.31,112.83-76.96,89.5-102.04-22.84-191.9-31.3-294.76-43.7-181.83-21.92-310.98-29.89-424.21-138.34,107.46,176.41-45.12,283.12-127.99,530.62-35.89,107.17-17.03,188.99-134.47,72.12-103.6-103.07-240.9-246.05-294.74-382.67-50.33-127.73-45.26-181.88-1.95-288.13-55.29,100.57-117.42,159.07-216.1,223.55-243.2,158.9-445.56,153.73-707.99,51.42-155.81-60.75-26.93-94.44,51.59-133.74,140.39-70.28,223.6-124.45,319.51-160.98-273.32,7.74-444.33,74.28-723.91,149.93-476.37,128.88-919.89,179.66-1380.69-38.45-84.39-39.95-147.84-75.77-220.2-135.32,403.27,205.89,758.24,274.03,1360.13,161.43,218.6-40.89,567.94-152.39,838.15-161.06-153.17-32.82-282.92-120.55-407.15-272.68-104.05-127.39-35.5-117.23,94.47-123.52,133.48-6.46,273.11-2.7,399.72,38.55-69.18-60.24-114.97-139.24-134.78-256.87-35.02-207.83,27.91-127.3,171.95-65.95,100.22,42.68,41.26,13.6,109.26,48.83-13.2-36.59-20.61-77.91-22.46-127.87-1.73-46.83,9.72-268.51,61.57-281.83,35.94-9.23,73.08,49.23,89.44,64.65,79.33,74.84,184.86,135.97,247.86,228.11-15.02-124.38,92.33-238.02,156.57-355.24,12.59-22.98,57.12-150.19,105.1-70.25l32.46,75.22c48.62,99.66,120.98,184.52,133.03,276.3,38.12-93.39,90.82-134.7,179.45-219.71,83.57-80.15,90.33-72,121.17,47.11,30.32,117.11,74.8,297.22,33.91,418.52,18.96-29.72,37.88-57.04,53.01-85.93,37.98-72.47,13.81-196.75,85.55-169.05,75.53,29.19,132.76,93.45,158.39,168.68,103.81-33.86,118.87-16.89,240.15-11.93,139.85,5.72,221.44-89.24,161.6,85.17-63.13,183.97-165.55,287.23-302.41,338.92,410.91-66.45,814.67,64.87,1103.24,5.54h0ZM2507.27,974.73c-97.48-9.42-142.48-21.55-223.87-51.15,49.1,239.73,66.72,230.25,231.04,385.7-29.07-55.19-48-117.54-54.13-186.23-14.13-158.44,59.7-85.31,133.08-24.62-38.68-39.75-67.21-78.24-86.12-123.71h0ZM3602.03,1028.81c24.05-196.59-27.78-247.75-72.12-432.67l-2.86,2.34c-130.65,104.6-133.68,107.05-221.07,217.37-3.36,31.19-14.79,63.54-37.3,97.8,30.14,8.42,57.7,19.85,80.53,34.38l7.94,7.29c17.86-22.72,33.87-45.89,43.31-71.86,10.8-29.75,24.49-97.35,72.22-56.09,70.86,61.25,113.24,129.14,129.35,201.44h0ZM3254.21,909.89c24.14-111.9,26.13-136.7-57.78-258.08-43.79-63.35-64.66-92.47-92.31-141.56-13.02,22.71-21.06,34.01-56.02,81.69-118.26,161.3-152.19,167.4-125.1,351.71,18.75-9.38,40.12-17.88,65.42-26.54,74.14-25.39,178.8-28.24,265.79-7.22h0ZM2910.33,950.36c-50.8-71.82-76.69-107.82-159.87-167.16-76.1-54.3-117.52-78.52-179.22-129.02-56.3,216.22-52.71,256.71,57.06,471.49,6.94,4.93,13.73,9.36,20.3,13.08,8.32,4.71,16.27,9.07,23.88,13.16-40.6-94.78-32.86-168.07,55.72-245.63,96.45-84.47,96.26-24.44,102.1,57.89,1.27,17.87,3.19,34.22,5.63,49.43,22.41-27.44,45.22-46.9,74.41-63.24h0ZM2543.41,1357.18c-26.63-12.32-46.37-23.44-82.97-41.69-152.01-75.8-366.91-65.08-543.43-46.65,19.89,24.98,40.09,50.3,42.66,53.37,198.3,236.57,324.38,229.02,573.29,255.86,55.53-9.66,120.22-15.4,201.04-17.07,41.86-.86,70.37-1,98.11,1.54-118.64-36.72-221.18-107.2-288.72-205.36h0ZM3940.93,942.33c3.41,11.88,6.05,23.99,7.84,36.24,25.71,175.44-60.17,300.54-183.88,388.61,263.58-84.81,371.77-59.15,510.38-388.68l4.8-12.19c-124.78,15.27-166.31-21-309.69-23.76l-29.45-.22h0ZM3737.81,1385.53c-62.58,40.27-132.88,72.03-202.4,96.76,166.11-123.71,365.04-212.96,349.1-457.85-5.42-83.34-41.15-132.44-99.49-175.69-42.28,166.87-60.26,106.75-148.6,273.16-45.9,86.47-72.58,181.03-113.48,269.42,25.42,75.72,9.57,145.14-111.59,192.25l-4.87,1.89c16.85,15.85,31.88,31.09,45.25,45.78,172.26,128.56,190.28,127.37,424.59,146.14,132.59,10.63,233.33,10.66,355.66,34.28-99.65-235.44-170.7-375.06-461.92-420.97l-32.27-5.19h0ZM3399.61,1588.09c77.04,131.21,143.75,174.96,63.93,334.39-69.55,138.9-121.35,195.36-165.43,333.11-83.91-77.39-172.53-158.99-239.62-247.54-118.15-155.95-119.24-221.23-96.02-392.24,70.38,37.46,177.54,24.58,251.67,7.81-76.82-7.53-290.31-.04-271.11-138.05,15.1-108.51,264.48-224.38,384.11-291.59,58.74,75.59,181.84,225,151.52,286.93-31.77,64.89-170.97,110.65-233.96,139.21,72.78-9.2,89.23-7.33,154.91-32.03h0ZM2841.43,1042.64c19.85,90.06,57.18,141.39,71.51,250.21,15.63,14.66,32.84,32.02,52.37,52.97,79.76-82.13,207.06-153.85,297.43-199.89-2.73-72.18,37.88-121.22,77.03-169.06-48.62-8.41-94.29-15.28-147.83-15.15-156.96.4-226.91,20.3-350.51,80.92h0ZM2688.07,1160.16c97.35,50.54,136.62,53.87,211.08,120.08-60.93-88.92-131.92-206.28-142.65-309.59l-.03-3.06c-74.19,54.05-62.28,83.54-68.4,192.57h0ZM3292.81,1130.86c8.44-4.18,16.38-8.05,23.69-11.6,47.19-22.9,65.25,35.41,91.89,75.8,34.46,52.23,75.2,107.99,100.56,161.84,53.73-252.85,91.07-246.74-53.41-438.98-7.79,15.37-17.43,29.6-34.54,48.29-88.82,96.95-101.39,90.08-128.19,164.65h0ZM2963.08,1348.15c-66.32-36.45-134.66-77.47-203.77-106-134.43-55.51-142.17-48.57-222.22-103.98,42.82,273.7,171.56,314.97,373.65,428.82-10.32-17.71-17.12-39.32-19.38-65.53-4.53-52.58,25.19-104.72,71.72-153.3Z" style="fill: #d1d3d4; fill-rule: evenodd; stroke: #b0ba36; stroke-miterlimit: 10;"/>
  <path d="M2912.32,1582.6c-2.15-.33-4.28-.71-6.43-1.07l-41.04,2.41c-487.13,24.83-474.76,103.15-793.43,267.55,19.41,7.76,38.82,15.45,58.51,22.73,326.99,120.83,591.86-17.46,814.94-256.32l2.47-5.83c-13.29-7.77-25.14-17.47-35.03-29.47h0ZM5129.55,1346.1c281.32-57.84,107.07-393.74-74.83-248.36l-33.99,29.89,22.29-41.11c100.66-133.82,298.37-20.81,285.78,133.72-12.61,154.91-182.7,189.01-342.2,189.19,333.54,64.07,661.34,145,915.82,197.43,415.94,85.7,801.15,126.29,1199.16,96.89,174.22-12.86,360.71-37.69,530.93-85.61,310.71-87.45,564.85-320.15,507.77-685.83-76.05-487.16-796-477.8-866.25-52.64-24.31,147.16,50.43,314.45,216.21,323.14l44.07-.49c-226.81,58.79-337.47-188.83-286.86-377.08,118.95-442.46,868.26-429.48,960.73,95.74,65.73,373.38-174.12,652.32-514.85,756.18-49.66,15.14-100.47,28.55-152.15,40.36,39.11,7.28,73.97,18.6,104.6,27.75,176.87,52.89,303.55,233.79,236.56,408.48-36.13,94.24-120.08,142.32-193.73,147.44-147.34,10.25-298.95-128.97-197.57-275.13,49.07-70.74,144.31-92.14,208.94-32.54l27.14,34.68-36.36-21.79c-74.52-39.13-148.59-18.47-177.84,64.46-71.71,203.36,349.58,265.74,310.15-51.49-11.24-90.49-67.57-156.4-146.9-194.05-158.84-75.38-319.35-66.53-513.94-49.48-281.81,24.71-571.96,12.96-836.75-21.09-31.72-4.08-63.31-8.52-94.79-13.26,174.89,108.17,309.67,271.43,273.78,445.75-59.6,289.37-475.54,282.71-510.35,34.3-10.3-73.52,31.88-141.55,95.11-177.66l59.33-23.55-47.73,39.63c-192.02,176.48,57.97,358,221.06,262.85,158.49-92.46,137.22-272.71,33.93-393.03-155.16-180.75-325.02-218.1-582.3-276.35-397.81-90.06-784.93-203.3-1185.17-262.75-289.27-42.97-433.46-36.38-695.22-10.45,197.11,40.12,299.4,207.17,399.9,414.94,53.08,109.74,27.31,112.84-76.96,89.5-102.04-22.84-191.9-31.29-294.75-43.7-181.83-21.92-310.99-29.89-424.21-138.34,107.46,176.4-45.12,283.12-127.99,530.63-35.89,107.16-17.03,188.99-134.47,72.12-103.59-103.07-240.9-246.05-294.74-382.67-50.33-127.72-45.26-181.88-1.95-288.13-55.29,100.57-117.42,159.07-216.1,223.55-243.2,158.89-445.56,153.72-707.99,51.42-155.81-60.75-26.93-94.44,51.59-133.74,140.39-70.28,223.6-124.45,319.51-160.98-273.32,7.74-444.33,74.28-723.9,149.93-476.37,128.89-919.89,179.66-1380.69-38.45-84.39-39.95-147.84-75.77-220.2-135.32,403.27,205.89,758.24,274.03,1360.13,161.44,218.6-40.9,567.94-152.39,838.15-161.06-153.17-32.81-282.92-120.55-407.15-272.68-104.05-127.39-35.5-117.23,94.46-123.52,133.48-6.46,273.11-2.7,399.72,38.55-69.18-60.25-114.97-139.24-134.78-256.87-35.02-207.83,27.91-127.3,171.95-65.96,100.22,42.69,41.26,13.61,109.26,48.84-13.2-36.6-20.61-77.91-22.46-127.87-1.73-46.83,9.72-268.51,61.58-281.83,35.94-9.23,73.08,49.23,89.44,64.65,79.33,74.84,184.86,135.97,247.86,228.11-15.02-124.38,92.33-238.02,156.57-355.24,12.58-22.98,57.11-150.19,105.09-70.26l32.46,75.23c48.62,99.66,120.98,184.52,133.03,276.3,38.12-93.39,90.82-134.71,179.46-219.71,83.57-80.15,90.33-72.01,121.17,47.11,30.32,117.12,74.8,297.22,33.91,418.52,18.95-29.72,37.88-57.04,53.01-85.92,37.97-72.47,13.8-196.77,85.55-169.05,75.53,29.19,132.76,93.46,158.39,168.68,103.81-33.86,118.87-16.88,240.15-11.93,139.85,5.73,221.44-89.23,161.6,85.18-63.12,183.96-165.55,287.23-302.41,338.91,410.91-66.44,814.67,64.88,1103.24,5.55h0ZM2497.42,973.92c-97.48-9.42-142.48-21.55-223.87-51.15,49.1,239.73,66.71,230.25,231.04,385.71-29.07-55.19-48-117.54-54.13-186.23-14.14-158.44,59.69-85.31,133.08-24.62-38.68-39.74-67.21-78.24-86.12-123.7h0ZM3592.18,1028c24.05-196.59-27.78-247.75-72.12-432.67l-2.86,2.34c-130.65,104.6-133.67,107.05-221.06,217.37-3.36,31.19-14.79,63.53-37.3,97.8,30.14,8.42,57.7,19.85,80.53,34.38l7.94,7.29c17.86-22.71,33.88-45.89,43.31-71.86,10.8-29.75,24.49-97.35,72.22-56.09,70.86,61.25,113.24,129.15,129.35,201.45h0ZM3244.35,909.08c24.14-111.9,26.14-136.7-57.78-258.08-43.79-63.35-64.65-92.47-92.31-141.56-13.02,22.72-21.06,34.01-56.02,81.69-118.26,161.3-152.19,167.4-125.1,351.71,18.75-9.38,40.12-17.88,65.42-26.54,74.14-25.39,178.8-28.24,265.79-7.22h0ZM2900.48,949.55c-50.8-71.82-76.69-107.82-159.87-167.16-76.1-54.3-117.52-78.52-179.22-129.02-56.3,216.22-52.71,256.71,57.06,471.49,6.93,4.93,13.73,9.36,20.3,13.08,8.32,4.72,16.27,9.07,23.88,13.16-40.6-94.78-32.86-168.07,55.72-245.63,96.45-84.47,96.26-24.44,102.1,57.89,1.27,17.87,3.19,34.22,5.63,49.43,22.41-27.44,45.22-46.9,74.41-63.24h0ZM2533.56,1356.37c-26.63-12.32-46.37-23.44-82.97-41.69-152-75.8-366.91-65.08-543.43-46.65,19.89,24.98,40.09,50.3,42.66,53.37,198.31,236.57,324.38,229.02,573.29,255.86,55.53-9.65,120.22-15.39,201.05-17.07,41.86-.87,70.37-1,98.11,1.53-118.64-36.71-221.18-107.19-288.72-205.35h0ZM3931.08,941.52c3.41,11.88,6.05,23.99,7.84,36.23,25.71,175.44-60.17,300.54-183.88,388.61,263.58-84.81,371.77-59.16,510.38-388.68l4.8-12.2c-124.78,15.28-166.31-20.99-309.69-23.74l-29.45-.22h0ZM3727.96,1384.72c-62.59,40.27-132.88,72.02-202.4,96.76,166.11-123.71,365.04-212.96,349.1-457.85-5.42-83.34-41.15-132.44-99.49-175.69-42.28,166.87-60.26,106.75-148.59,273.16-45.9,86.48-72.58,181.04-113.48,269.43,25.42,75.72,9.57,145.14-111.59,192.25l-4.88,1.89c16.85,15.86,31.88,31.09,45.25,45.79,172.26,128.57,190.28,127.37,424.59,146.14,132.59,10.62,233.33,10.66,355.66,34.28-99.65-235.43-170.7-375.06-461.92-420.97l-32.27-5.19h0ZM3389.76,1587.27c77.04,131.21,143.75,174.96,63.93,334.39-69.55,138.89-121.35,195.36-165.43,333.11-83.91-77.39-172.53-158.99-239.62-247.54-118.15-155.95-119.24-221.23-96.01-392.24,70.38,37.45,177.54,24.58,251.67,7.82-76.81-7.54-290.31-.04-271.1-138.05,15.1-108.52,264.48-224.38,384.11-291.59,58.74,75.59,181.83,224.99,151.52,286.93-31.77,64.88-170.97,110.65-233.96,139.21,72.78-9.2,89.23-7.33,154.91-32.03h0ZM2831.58,1041.82c19.85,90.06,57.18,141.39,71.5,250.21,15.63,14.66,32.85,32.02,52.37,52.96,79.75-82.12,207.05-153.84,297.43-199.88-2.73-72.18,37.88-121.22,77.03-169.06-48.62-8.42-94.29-15.28-147.83-15.15-156.96.39-226.91,20.3-350.51,80.92h0ZM2678.21,1159.34c97.35,50.53,136.61,53.88,211.08,120.08-60.93-88.92-131.92-206.28-142.65-309.59l-.03-3.06c-74.19,54.05-62.28,83.54-68.4,192.57h0ZM3282.95,1130.04c8.44-4.18,16.37-8.05,23.69-11.6,47.19-22.9,65.25,35.41,91.9,75.8,34.46,52.24,75.2,108,100.56,161.85,53.73-252.85,91.06-246.74-53.41-438.98-7.8,15.37-17.43,29.6-34.55,48.29-88.81,96.95-101.39,90.08-128.19,164.65h0ZM2953.23,1347.34c-66.32-36.45-134.66-77.47-203.77-106-134.43-55.51-142.17-48.57-222.23-103.98,42.82,273.7,171.57,314.97,373.65,428.82-10.32-17.72-17.12-39.33-19.38-65.54-4.53-52.58,25.19-104.73,71.72-153.3Z" style="fill: #d9bf77; fill-rule: evenodd; stroke: #231f20; stroke-miterlimit: 10;"/>
</svg>