<?xml version="1.0" encoding="UTF-8"?>
<svg id="uuid-0e2c613d-3241-4aad-923c-f27bfd31b77a" data-name="Ñëîé 1" xmlns="http://www.w3.org/2000/svg" viewBox="0 0 2341.8 3018.55">
  <path d="M1107.25,3013.55c-31.38,0-64.13-4.54-97.63-13.66-92.13-25.07-189.64-83.67-289.84-174.17-81.85-73.93-156.24-173.67-221.1-296.44-54.6-103.36-102.64-223.21-142.77-356.23-74.69-247.55-102.42-475.44-107.04-571.07-4.94-102.37,12.23-206.21,48.33-292.4,17.84-42.58,39.75-79.96,65.12-111.09,26.22-32.17,55.45-56.8,86.89-73.22,41.81-21.84,102.59-36.61,166.75-40.54,52.69-3.23,132.13-.51,211.31,30.74,46.29,18.27,86.53,44.09,119.6,76.74,37.02,36.55,65.19,81.85,83.73,134.66,1.2,3.41.11,7.2-2.71,9.45-2.82,2.26-6.75,2.49-9.82.57-60.86-38.01-174.15-108.76-324.26-85.01-41.15,6.51-76.54,19.17-110.75,31.41-42.56,15.23-83.06,29.71-130.69,31.42,49.49,43.4,119.78,19.83,172.31,2.21,14.29-4.79,26.64-8.94,37.1-11.22,2.82-.62,6.03-1.36,9.57-2.17,11.08-2.56,25.1-5.79,40.48-8.39,4.68-1.47,9.59-2.68,14.73-3.63,27.39-5.07,55.64-1.59,74.51,2.23,43.34,8.76,89.94,29.03,131.22,57.07,42.79,29.07,76.8,64.67,95.75,100.25,1.16,2.18,1.32,4.76.43,7.06-.89,2.3-2.74,4.11-5.06,4.94-2.01.72-50.06,17.81-118.1,30.67-63,11.91-155.33,22.07-237.44,2.9-52.26-12.2-120.32-48.24-182.05-96.4-3.7-2.89-4.36-8.23-1.47-11.93,2.89-3.7,8.23-4.36,11.93-1.47,59.88,46.72,125.47,81.58,175.46,93.25,79.13,18.48,168.82,8.57,230.13-3,49.39-9.32,88.8-21.18,106.18-26.8-31.74-52.2-96.5-101.26-164.51-126.64.93,1.27,1.83,2.59,2.69,3.95,13.95,21.99,18.65,52.3,12.24,79.11-5.04,21.09-16.44,37.83-32.12,47.15-23.38,13.9-53.27,18.79-84.16,13.76-29.31-4.78-56.16-18.14-73.66-36.67-27.13-28.74-28.99-65.52-5.09-100.93,2.1-3.1,4.37-6.04,6.81-8.8-1.71.39-3.32.75-4.82,1.08-9.57,2.09-21.51,6.1-35.33,10.73-30.6,10.27-69.38,23.27-107.55,23.27-34.96,0-69.41-10.91-96.63-44.83-2.09-2.6-2.46-6.18-.96-9.15s4.61-4.8,7.94-4.66c53.36,2.19,97.6-13.63,144.45-30.39,34.95-12.51,71.1-25.44,113.82-32.2,66.18-10.47,133.1-4.28,198.88,18.42,44.77,15.45,82.69,35.97,115.51,55.72-35.71-83.87-97.68-143.68-184.51-177.95-136.15-53.74-294.79-27.06-363.94,9.05-58.24,30.41-109.45,92.85-144.2,175.81-35.15,83.9-51.85,185.12-47.03,285.01,10.36,214.73,118.08,898.3,465.33,1211.94,98.2,88.7,193.39,146.02,282.91,170.38,73.52,20,142.99,16.98,200.9-8.75,87.34-38.8,127.11-117.07,127.11-173.37,0-88.22-43.95-179.6-114.7-238.49-48.1-40.03-129.93-83.23-246.62-61.69-4.61.86-9.05-2.2-9.9-6.82-.85-4.62,2.2-9.05,6.82-9.9,50.37-9.3,99.21-7.66,145.16,4.86,42.19,11.5,81.03,31.85,115.42,60.48,74.53,62.03,120.83,158.42,120.83,251.56,0,34.72-12.64,72.17-35.6,105.47-24.91,36.12-60.04,64.97-101.61,83.44-34.88,15.5-73.57,23.28-114.63,23.28ZM716.51,1311.6c-15.25,4.86-29.25,13.47-39.02,27.95-19.34,28.65-18.14,56.97,3.36,79.74,28.97,30.68,92.27,46.43,136.77,19.97,11.69-6.95,20.31-19.91,24.27-36.49,5.37-22.5,1.52-47.81-10.06-66.06-21.31-33.59-72.91-32.09-115.32-25.12Z" style="fill: #d9bf77; stroke: #d9bf77; stroke-miterlimit: 10; stroke-width: 10px;"/>
  <path d="M1257.49,2691.43c-38.5,0-79-4.01-119.39-14.04-75.86-18.85-114.03-64.89-144.7-101.88-8.09-9.76-15.74-18.98-23.36-26.81-19.87-20.42-19.25-37.41-15.24-48.06.43-1.13.91-2.25,1.45-3.34-.12-.8-.18-1.66-.17-2.56.28-18.91,36.6-70.17,71.55-108.81,29.2-32.29,85.67-87.22,135.77-92.42,18.43-1.91,37.12,3.48,55.2,8.71,21.85,6.31,42.69,12.33,62.75,6.37,1.95-13.59,5.85-27.47,9.41-40.12,1.54-5.47,2.99-10.63,4.23-15.52,9.73-38.47,10.78-73.21,3.2-103.9-41.35,7.04-80.77-1.47-111.88-15.64-15.47,20.68-39.57,31.4-65.87,28.15-32.37-4.01-56.74-28.04-60.63-59.81-3.24-26.47,5.2-49.2,24.41-65.73,25.77-22.18,67.49-29.54,106.3-18.74,26.53,7.39,64.72,27.74,92.35,62.71,11.75,14.87,20.79,31.32,27.02,49.12,2.34-.63,4.68-1.31,7.02-2.06,4.71-1.5,10.26-3.11,16.67-4.98,7.32-2.13,15.39-4.47,23.63-7.07-5.06-9.02-8.84-19.68-9.92-29.53-1.53-13.91,2.51-25.22,11.39-31.84,16.17-12.06,51.04-3.75,67.02,7.04,13.27,8.96,13.13,18.32,11.87,23.1-4.31,16.29-23.44,28.18-49.13,38.27,24.07,9.26,58.92,12.55,96.98-16.58,28.36-21.68,8.51-72.01-11.75-100.55-51.09-72.01-63.25-186.29-73.02-278.12-1.19-11.16-2.31-21.7-3.47-31.94-12.73-112-10.41-210.18,6.88-291.83,15.54-73.37,43.65-135.63,83.55-185.04,109.77-135.94,287.52-153.59,417.3-166.49,6.96-.69,13.79-1.37,20.45-2.05,56.02-5.73,113.63-4.77,162.24,2.71,56.05,8.62,99.28,25.29,128.73,49.62,5.81-2.72,11.69-5.55,17.65-8.51,55.61-27.6,84.48-66.84,85.8-116.64,2.39-90.4-85.59-189.54-169.58-236.94-33.97-19.16-76.58-25.42-117.79-31.47-38.8-5.7-78.93-11.6-113.5-28.12-42.41-20.27-76.31-58.86-100.76-114.7-8.78-20.06-15.39-40.17-20.36-59.03-36.66-13.52-72.28-25.79-104.98-36.34-20.79,41.55-44.47,88.48-85.74,134.58-48.47,54.13-111.29,95.56-192.07,126.65-.08.03-.17.06-.26.09-62.37,21.73-131.37,32.6-206.35,32.6-61.5,0-127.01-7.31-196.22-21.94-43.82-9.27-107.35-15.15-171.85,5.06-9.36,5.24-17.81,8.32-24.99,8.61-4.1.16-7.76-2.66-8.64-6.68-.88-4.03,1.26-8.11,5.08-9.67,7.07-2.9,14.29-5.53,21.64-7.88,10.03-5.86,24.26-16.24,44.24-34.32,26.09-23.61,52.68-51.82,70.28-70.49,6.66-7.07,11.92-12.65,15.59-16.33,74.77-74.94,150.07-128.12,229.12-161.66-23.15-12.1-45.57-25.73-67.18-40.86-.67-.47-1.33-.93-1.99-1.4-14.53,1.26-29.39,2.73-44.52,4.4-.5,2.35-1.97,4.41-4.1,5.62-55.41,31.69-97.34,73.75-141.74,118.28-47.12,47.27-95.85,96.15-161.82,130.99-87.37,46.14-167.38,60.69-236.1,60.69-76.85,0-139.57-18.18-182.69-30.68-22.9-6.64-41-11.88-50.21-11.05-4.68.43-8.81-3.02-9.23-7.7-.43-4.68,3.02-8.81,7.7-9.23,12.41-1.13,30.9,4.23,56.48,11.65,79.37,23.01,227.1,65.84,406.12-28.71,63.69-33.64,111.5-81.59,157.72-127.96,37.68-37.8,76.48-76.72,123.84-107.83-111.17,14.3-237,40.26-373.33,84.48-44.95,14.58-102.17,37.89-162.76,62.57-85.78,34.94-183,74.54-271.4,100.08-63.7,18.4-116.39,27.57-159.05,27.57-26.34,0-48.85-3.49-67.78-10.46-3.73-1.37-6.01-5.15-5.49-9.09.52-3.94,3.7-7,7.66-7.35,80.38-7.29,214.52-112.67,274.22-167.38,7.84-7.18,15.81-14.57,23.52-21.71,71.2-65.99,144.82-134.23,244.47-162.57,83.92-23.86,174.64-26.63,269.63-8.23,82.42,15.97,165.08,47.89,239.84,92.54,13.04-1.53,25.84-2.9,38.46-4.12-59.98-46.29-110.65-103.4-150.84-170.09-2.07-3.44-5.23-8.8-9.24-15.58-14.72-24.95-39.37-66.72-63.8-104.95-38.17-59.73-52.37-73.89-57.44-77.01,0,0,0,0-.01,0,0,0,0,0,0,0-4-2.45-5.26-7.69-2.8-11.69,2.45-4,7.69-5.26,11.69-2.81h0s.05.03.08.05c70,42.85,148.43,44.45,231.47,46.13,72.33,1.47,147.13,2.99,215.62,34.39,84.27,38.63,142.53,112.57,198.87,184.07,64.86,82.32,126.12,160.07,217.97,166.98,2.83.21,5.37,1.83,6.77,4.31,1.39,2.48,1.46,5.49.17,8.02-.29.57-.58,1.14-.87,1.71,29.07,9.41,60.34,20.13,92.51,31.84-5.49-25.3-8.05-47.12-9.25-61.72-.6-7.28-1.27-17.14-2.05-28.57-3.65-53.57-9.77-143.23-24.29-221.29-5.86-31.49-12.55-57.97-19.97-79.07-22.04-16.57-41.2-37.3-54.06-64.56-1.27-2.68-1.04-5.83.59-8.31,1.63-2.48,4.44-3.93,7.41-3.81,24.1.89,44.02,22.59,60.2,65.9,24.32,17.46,52.3,30.03,78.74,40.94,36.76,15.16,148.62,61.3,197.68,99.57,139.82,109,126.65,309.06,120.33,405.2-1.43,21.67-2.55,38.78-1.38,46.86.58,3.97-1.71,7.81-5.48,9.19-3.77,1.39-7.99-.05-10.13-3.45-24.24-38.51-123.37-94.45-271.97-153.47-14.07-5.59-28.14-11.03-42.11-16.31,18.89,64.52,53.64,124.68,108.95,151.11,32.26,15.41,71.09,21.12,108.64,26.64,42.75,6.28,86.95,12.78,123.67,33.49,47.54,26.82,91.85,65.93,124.77,110.11,36.14,48.51,54.63,97.64,53.45,142.08-1.48,55.78-34.41,101.22-95.23,131.41-4,1.99-7.97,3.92-11.9,5.8,23.82,25.63,34.26,57.73,31.05,95.49-2.72,31.99-12.28,62.35-28.4,90.24-15.38,26.6-37.3,51.9-65.14,75.2-50.96,42.62-123.42,80.5-221.53,115.79-105.67,38.02-218.39,16.46-300.69.71-45.29-8.67-84.4-16.15-100.35-8.32-3.78,1.86-8.35.66-10.74-2.81-2.39-3.47-1.88-8.16,1.2-11.04l2.2-2.05c61.52-57.47,98.66-92.15,180.89-134.09,16.5-8.41,36.6-15.2,57.62-19.72,1.03-.44,2.08-.86,3.14-1.25,60.5-22.34,127.03,3.54,144.42,15.5,19.36,13.31,96.33,45.76,159.97,26.85,24.55-7.29,44.51-21.47,59.64-42.28-14.89,6.93-30.38,9.75-46.49,9.75-32.01,0-66.47-11.11-103.67-23.1-53.33-17.19-113.78-36.67-183.19-29.06-91.61,10.04-160.32,41.32-197.24,58.13-15.92,7.25-25.53,11.62-32.15,12.54-3.15.44-6.29-.93-8.12-3.53-1.83-2.61-2.05-6.02-.57-8.84,53.81-102.45,160.17-129.89,264.5-149.21,30.67-5.68,61.72-7.83,94.6-10.1,74.38-5.14,157.74-10.91,268.25-59.36-62.84-45.71-178.97-52.83-271.73-43.35-6.68.68-13.52,1.36-20.5,2.06-126.79,12.6-300.45,29.84-405.75,160.25-81.16,100.5-110.35,256.7-86.76,464.28,1.17,10.3,2.3,20.87,3.49,32.06,9.56,89.86,21.46,201.7,69.98,270.08,13.66,19.25,23.62,41.73,27.33,61.68,5.07,27.27-1.54,48.78-19.11,62.21-21.5,16.46-44.3,25.38-67.76,26.53-17.49.85-34.98-2.59-51.99-10.23-2.71-1.22-5.46-3.25-8.14-5.88-9.45,3.1-19.39,6.08-29.52,9.02-6.31,1.83-11.75,3.42-16.26,4.85-2.46.78-4.91,1.51-7.36,2.17.56,2.3,1.08,4.62,1.55,6.96,6.41,31.6,4.79,66.84-4.79,104.75-1.29,5.11-2.77,10.38-4.34,15.95-2.48,8.81-5.06,17.99-6.99,26.94,36.01-16.77,78.83-13.5,124.42,9.66,37.83,19.21,68.53,47.81,79,61.33l6.09,7.86c41.87,54,47.25,60.94,73.69,120.14,7.63,17.07,2,39.14-16.74,65.59-16.11,22.74-41.56,48.06-73.62,73.2-22.37,17.55-119.93,53.66-235.51,53.66ZM970.74,2506.54s-.02.06-.03.08c-4.13,10.95,3.99,22.48,11.52,30.22,8.09,8.32,15.94,17.79,24.26,27.82,30.6,36.9,65.28,78.72,135.72,96.23,85.01,21.12,166.62,13.66,220.11,3.69,62.4-11.63,107.85-30.5,120.19-40.19,57.12-44.81,90.79-89.25,86.78-113.55-3.72-.58-58.3-9.15-112.69-21.76-35.84,8.14-73.82,22.85-104.66,34.79-21.2,8.21-39.51,15.3-53.06,18.83-47.11,12.23-85.95,2.27-120.9-10.31-11.16-4.02-24.72-10.34-39.07-17.04-25.59-11.94-55.7-25.98-82.79-31.94-27.55,8.99-55.89,17.38-85.37,23.12ZM1084.56,2473.91c21.26,7.26,42.57,17.2,61.53,26.04,13.99,6.53,27.21,12.69,37.65,16.45,44.28,15.94,76.41,18.8,110.86,9.85,12.6-3.28,30.48-10.21,51.2-18.23,23.06-8.93,49.74-19.27,76.75-27.46-22.34-6.07-42.65-12.73-56.89-19.67-99.68-48.56-185.39-19.47-276.14,11.33-1.65.56-3.3,1.12-4.96,1.68ZM1510.4,2483.07c9.63,1.88,18.64,3.56,26.65,5.01-8.01-2.98-16.98-4.56-26.65-5.01ZM1504.56,2465.86c17.39,0,32.17,2.88,44.47,8.67-37.04-58.21-119.98-65.99-154-69.18-7.8-.73-12.95-1.21-16.17-2.07-25.94-6.92-62.94-18.57-84.6-39.85-10.14-9.96-13.88-22.95-14.15-37.05-22.88,4.68-45.61-1.88-66.23-7.84-17.27-4.99-33.59-9.7-48.73-8.13-32.55,3.38-78.19,35.17-125.21,87.24-27.44,30.38-46.94,58.14-57.56,76.42,11.56-5.42,26.02-8.99,42.59-10.3,9.52-.75,19.66.11,30.08,2.1,9.75-3.21,19.41-6.49,28.99-9.74,47.29-16.05,91.96-31.21,139.14-36.39,53.15-5.83,102.19,2.63,149.9,25.88,19.18,9.35,50.98,18.34,83.57,25.99,3.77-.81,7.53-1.55,11.25-2.21,13.31-2.35,25.51-3.53,36.64-3.53ZM1297.13,2320.64c-.65,12.4,1.52,23.27,9.04,30.66,18.8,18.46,52.99,29.13,77.07,35.56,1.85.49,7.45,1.02,13.38,1.57,27.18,2.55,83.23,7.81,127.12,36.89-7.15-9.78-15.89-21.06-27.52-36.07l-6.1-7.87c-9.56-12.35-37.91-38.63-73.26-56.58-30.29-15.38-74.95-28.95-115.75-6.24-1.33.74-2.65,1.42-3.98,2.06ZM1154.9,2029.42c-23.01,0-44.92,6.83-59.6,19.46-14.7,12.65-21.14,30.21-18.62,50.78,3.38,27.59,25.46,42.48,45.84,45.01,15.77,1.95,34.9-2.61,48.43-19.08-8.05-4.54-15.33-9.41-21.68-14.38-9.22-7.2-15.57-14.13-18.87-20.59-5.07-9.92-2.23-17.08-.09-20.46,8.49-13.4,32.7-13.53,49.12-5.26,18.88,9.5,25.71,28.08,17.84,48.49-.7,1.82-1.45,3.59-2.25,5.32,27.55,12.25,62.01,19.58,98.16,13.91-5.57-15.16-13.45-29.22-23.65-42.13-25.12-31.8-60.72-50.51-83.57-56.87-10.21-2.84-20.74-4.21-31.06-4.21ZM1155.66,2076.28c-5.67,0-9.98,1.41-10.98,2.98-.47.75.24,6.98,15.06,18.55,5.87,4.59,12.62,9.09,20.08,13.29.55-1.24,1.08-2.51,1.59-3.82,4.79-12.42,1.55-21.56-9.62-27.19-5.55-2.79-11.33-3.81-16.13-3.81ZM1380.89,2064.7c-5.51,0-9.86.9-12.04,2.52-4.93,3.68-5.26,10.93-4.66,16.36,1.04,9.46,5.16,18.94,9.5,25.86,5.53-1.99,10.96-4.1,16.09-6.35,24.39-10.67,30.1-19.29,31.3-23.56-.43-1.5-4.58-5.83-14.77-9.8-8.97-3.49-18.21-5.04-25.44-5.04ZM1566.83,1463.06c20.9.35,48.17,5.57,81.26,11.9,80.37,15.38,190.45,36.44,291.74,0,96.2-34.6,166.97-71.51,216.38-112.83,53.91-45.09,82.54-95.42,87.51-153.84,2.95-34.61-7.21-63.61-30.19-86.2-.09-.09-.17-.17-.26-.26-116.92,52.77-204.03,58.79-281.56,64.15-32.38,2.24-62.96,4.35-92.67,9.86-92.62,17.15-186.8,40.77-240.23,119.77,2.07-.94,4.22-1.92,6.43-2.92,37.79-17.2,108.12-49.22,202.43-59.55,73.03-8,135.31,12.07,190.26,29.78,66.57,21.46,119.16,38.4,163.8-3.99,2.91-2.76,7.35-3.11,10.66-.85,3.31,2.27,4.58,6.54,3.05,10.25-17.68,42.9-47.07,70.72-87.36,82.69-52.24,15.52-110.97.25-146.74-14.81,5.06,10.64,6.89,23,5.19,35.99-3.39,25.94-20.36,50.88-46.55,68.42-36.63,24.55-89.97,24.68-132.73.32-25.8-14.7-40.11-44.74-37.34-78.41,1.3-15.81,6.25-30.2,14.05-42.02-6.43,2.43-12.52,5.1-18.15,7.97-72.07,36.75-107.16,66.46-158.98,114.56ZM1781.06,1329.85c-22.71,10.37-32.58,34.38-34.2,54.09-1.74,21.17,4.92,48.63,28.81,62.24,37.29,21.24,83.45,21.37,114.85.33,22.13-14.82,36.4-35.42,39.16-56.51,1.8-13.77-1.61-26.38-9.62-35.5-17.58-20.04-49.91-30.73-90.97-30.12-15.68.24-32.13,2.16-48.04,5.47ZM932.96,716.42c26.86,0,54.57,2.96,82.7,8.91,150.47,31.81,282.81,28.44,393.34-10.03,173.29-66.73,226.1-168.07,267.39-250.54-1.45-.46-2.89-.91-4.32-1.36-.41.39-.86.75-1.35,1.06-40.58,25.59-92.84,42.56-151.13,49.08-59.3,6.63-123.83,2.26-186.61-12.63-41.85-9.93-82.15-24.13-120.57-42.43-82.72,32.63-159.88,86.63-236.87,163.78-3.5,3.51-8.69,9.02-15.26,15.99-27.89,29.59-57.54,60.26-84.15,82.83,18.39-3.09,37.39-4.64,56.84-4.64ZM52.03,671.15c112.06,12.76,297.92-62.96,450.36-125.05,60.88-24.8,118.39-48.22,163.92-62.99,134.79-43.73,259.45-69.77,370.15-84.38-154.52-86.28-330.47-113.07-476.87-71.44-95.73,27.22-167.84,94.05-237.56,158.69-7.72,7.16-15.71,14.56-23.59,21.78-56.57,51.84-163.66,136.12-246.41,163.4ZM1811.89,493.44c17.79,6.62,35.78,13.53,53.75,20.67,68.8,27.32,129.36,54.99,175.14,80,40.5,22.13,70.31,42.58,89.04,61.05.35-7.39.91-15.9,1.54-25.5,6.13-93.23,18.9-287.22-113.82-390.68-47.23-36.85-157.48-82.32-193.71-97.26-21.08-8.7-43.11-18.43-63.77-30.76,5.11,17.68,9.79,37.95,14.05,60.84,14.7,79.03,20.86,169.31,24.54,223.24.77,11.36,1.44,21.17,2.03,28.33,1.85,22.59,5.51,46.41,11.2,70.06ZM1234.94,450.15c32.57,14.35,66.66,25.83,101.96,34.2,115.57,27.42,234.12,16.74,313.49-27.6-43.46-13.06-78.8-22.02-100.09-25.47-118.06-19.12-220.6-13.7-315.37,18.87ZM1150.33,404.18c20.27,13.29,41.37,25.32,63.21,36.02,5.45-2.06,10.93-4.03,16.42-5.91,53.24-18.21,109.37-28.33,169.36-30.42-10.34-.78-21.03-1.48-32.09-2.08-59.5-3.23-132.62-3.72-216.89,2.38ZM1279.07,382.44c35.05,0,67.19,1.07,96.17,2.78,97.75,5.76,167.16,18.98,208.85,29.33-44.22-32.97-81.99-80.89-121-130.41-55.09-69.92-112.06-142.22-192.6-179.14-65.28-29.93-138.28-31.41-208.88-32.85-67.44-1.37-136.78-2.78-200.53-28.74,26.57,36.62,62.4,95.86,96.35,153.39,3.98,6.75,7.13,12.08,9.16,15.45,42.49,70.51,97.38,130.15,161.5,176.59,54.85-4.59,105.38-6.4,150.98-6.4Z" style="fill: #d9bf77; stroke: #d9bf77; stroke-miterlimit: 10; stroke-width: 10px;"/>
</svg>