<?xml version="1.0" encoding="UTF-8"?>
<svg id="uuid-0567bb77-af6b-45bd-8a63-17645a5f6793" data-name="1" xmlns="http://www.w3.org/2000/svg" viewBox="0 0 2500 2500">
  <path d="M1116.79,1522.56c-1.88-.29-3.74-.62-5.62-.93l-35.87,2.11c-425.81,21.7-415,90.17-693.56,233.87,16.96,6.78,33.93,13.5,51.15,19.87,285.83,105.62,517.36-15.26,712.36-224.06l2.16-5.1c-11.62-6.79-21.98-15.27-30.62-25.76h0ZM1974.14,1345.66c172.3,35.07,261.71,181.09,349.56,362.71,46.4,95.92,23.87,98.63-67.27,78.23-89.2-19.96-167.74-27.35-257.65-38.2-158.94-19.16-271.84-26.12-370.81-120.93,93.93,154.2-39.44,247.48-111.88,463.83-31.37,93.67-14.88,165.2-117.54,63.04-90.55-90.1-210.57-215.08-257.64-334.5-44-111.64-39.56-158.99-1.7-251.86-48.33,87.91-102.64,139.05-188.9,195.41-212.59,138.89-389.47,134.37-618.87,44.95-136.2-53.11-23.54-82.55,45.1-116.91,122.72-61.43,195.45-108.78,279.29-140.72-238.91,6.76-346.79-12.93-110.59-20.51-133.89-28.68-247.3-105.38-355.9-238.36-90.95-111.36-31.03-102.47,82.57-107.97,116.68-5.65,238.73-2.36,349.4,33.7-60.47-52.67-100.5-121.71-117.82-224.54-30.61-181.67,24.4-111.27,150.31-57.66,87.6,37.31,36.07,11.89,95.51,42.69-11.54-31.99-18.01-68.11-19.63-111.77-1.51-40.94,8.5-234.71,53.83-246.35,31.42-8.07,63.88,43.03,78.18,56.51,69.34,65.42,161.59,118.86,216.66,199.4-13.13-108.72,80.71-208.06,136.86-310.53,11-20.09,49.93-131.29,91.86-61.41l28.37,65.76c42.5,87.12,105.75,161.29,116.29,241.52,33.32-81.63,79.39-117.75,156.87-192.06,73.05-70.06,78.96-62.94,105.91,41.18,26.51,102.37,65.39,259.81,29.64,365.84,16.57-25.98,33.11-49.86,46.34-75.11,33.19-63.35,12.07-172,74.78-147.77,66.02,25.51,116.05,81.69,138.46,147.45,90.74-29.59,103.91-14.76,209.92-10.43,122.25,5.01,193.57-78,141.26,74.46-55.18,160.81-144.71,251.08-264.34,296.25,359.19-58.08,112.39,12.01-116.42,34.67ZM754.11,990.5c-85.21-8.24-124.55-18.84-195.69-44.72,42.92,209.56,58.32,201.27,201.96,337.15-25.41-48.24-41.96-102.74-47.31-162.79-12.36-138.5,52.18-74.57,116.33-21.52-33.81-34.74-58.75-68.39-75.28-108.13h0ZM1711.08,1037.77c21.02-171.84-24.28-216.56-63.04-378.21l-2.5,2.05c-114.21,91.44-116.85,93.58-193.24,190.01-2.94,27.26-12.92,55.53-32.61,85.49,26.35,7.36,50.44,17.35,70.39,30.05l6.94,6.37c15.61-19.85,29.61-40.11,37.86-62.82,9.44-26,21.41-85.1,63.13-49.03,61.94,53.54,98.98,112.89,113.07,176.09h0ZM1407.03,933.82c21.1-97.81,22.85-119.49-50.5-225.6-38.28-55.38-56.52-80.83-80.69-123.74-11.38,19.86-18.41,29.72-48.97,71.41-103.37,141-133.03,146.33-109.35,307.44,16.39-8.2,35.07-15.63,57.19-23.2,64.81-22.19,156.3-24.69,232.33-6.31h0ZM1106.44,969.2c-44.41-62.78-67.04-94.24-139.74-146.12-66.52-47.46-102.73-68.63-156.66-112.78-49.21,189-46.08,224.39,49.88,412.14,6.06,4.31,12,8.18,17.74,11.43,7.28,4.12,14.22,7.93,20.87,11.51-35.49-82.85-28.73-146.91,48.7-214.71,84.31-73.83,84.14-21.37,89.25,50.6,1.11,15.62,2.79,29.91,4.92,43.21,19.59-23.99,39.53-41,65.04-55.28h0ZM785.7,1324.81c-23.27-10.77-40.53-20.49-72.52-36.45-132.87-66.26-320.72-56.89-475.02-40.78,17.39,21.84,35.04,43.97,37.29,46.66,173.34,206.79,283.55,200.19,501.13,223.65,48.54-8.43,105.09-13.46,175.74-14.92,36.59-.76,61.51-.87,85.76,1.34-103.7-32.08-193.34-93.7-252.38-179.5h0ZM2007.31,962.18c2.98,10.38,5.29,20.97,6.86,31.67,22.47,153.36-52.59,262.71-160.73,339.69,230.4-74.13,324.97-51.71,446.13-339.76l4.2-10.66c-109.07,13.36-145.38-18.34-270.71-20.75l-25.74-.19h0ZM1829.76,1349.59c-54.71,35.2-116.16,62.95-176.92,84.58,145.2-108.14,319.09-186.15,305.16-400.21-4.74-72.85-35.97-115.77-86.97-153.58-36.96,145.87-52.68,93.31-129.89,238.77-40.12,75.59-63.45,158.25-99.19,235.52,22.22,66.19,8.37,126.87-97.54,168.05l-4.26,1.65c14.73,13.86,27.87,27.17,39.55,40.02,150.58,112.38,166.33,111.33,371.15,127.74,115.9,9.28,203.96,9.32,310.89,29.96-87.11-205.8-149.21-327.85-403.77-367.98l-28.2-4.53h0ZM1534.13,1526.65c67.35,114.7,125.66,152.93,55.88,292.3-60.8,121.41-106.07,170.77-144.61,291.18-73.35-67.65-150.81-138.98-209.46-216.38-103.28-136.32-104.23-193.38-83.93-342.87,61.52,32.73,155.19,21.48,219.99,6.83-67.14-6.59-253.77-.03-236.98-120.67,13.2-94.86,231.19-196.14,335.76-254.88,51.35,66.07,158.94,196.67,132.45,250.81-27.77,56.72-149.45,96.72-204.51,121.69,63.62-8.04,78-6.41,135.41-28h0ZM1046.22,1049.86c17.35,78.73,49.98,123.59,62.5,218.72,13.66,12.81,28.71,27.99,45.78,46.29,69.71-71.78,180.99-134.47,259.99-174.72-2.39-63.1,33.11-105.96,67.34-147.78-42.5-7.36-82.42-13.35-129.22-13.24-137.2.34-198.35,17.74-306.39,70.73h0ZM912.15,1152.58c85.09,44.17,119.42,47.1,184.51,104.97-53.26-77.73-115.31-180.31-124.7-270.62l-.02-2.67c-64.85,47.25-54.44,73.02-59.79,168.33h0ZM1440.77,1126.97c7.37-3.65,14.31-7.04,20.7-10.14,41.25-20.02,57.04,30.95,80.33,66.26,30.12,45.67,65.73,94.4,87.9,141.48,46.97-221.02,79.6-215.68-46.69-383.73-6.81,13.44-15.24,25.88-30.2,42.21-77.63,84.75-88.63,78.74-112.05,143.92h0ZM1152.55,1316.91c-57.97-31.86-117.71-67.72-178.12-92.66-117.51-48.52-124.28-42.46-194.26-90.89,37.43,239.25,149.97,275.33,326.62,374.84-9.02-15.49-14.96-34.38-16.94-57.29-3.96-45.96,22.02-91.54,62.7-134Z" style="fill: #d9bf76; fill-rule: evenodd;"/>
</svg>